<?xml version="1.0" encoding="utf-8"?>
<!-- Generator: Adobe Illustrator 24.0.3, SVG Export Plug-In . SVG Version: 6.00 Build 0)  -->
<svg version="1.1" id="Layer_1" xmlns="http://www.w3.org/2000/svg" xmlns:xlink="http://www.w3.org/1999/xlink" x="0px" y="0px"
	 viewBox="0 0 397.4 83.41" style="enable-background:new 0 0 397.4 83.41;" xml:space="preserve">
<style type="text/css">
	.st0{fill:#FFFFFF;}
	.st1{fill:#DC774B;}
</style>
<g>
	<g>
		<path class="st0" d="M270.52,37.45c-2.91-2.71-6.88-4.37-11.51-4.37c-8.74,0-15.42,6.88-15.42,15.95
			c0,8.54,6.68,15.68,15.42,15.68c4.63,0,8.6-1.65,11.51-4.37v5.36h-0.07c0,6.75-4.3,10.92-10.65,10.92
			c-5.56,0-9.53-2.91-10.46-7.21h-4.63c1.06,6.68,7.08,11.38,15.09,11.38c9.07,0,15.22-5.89,15.22-15.09V34.15h-4.5V37.45z
			 M270.52,54.99c-2.65,3.9-6.68,5.76-10.92,5.76c-6.68,0-11.45-5.56-11.45-11.71c0-6.68,4.76-11.98,11.45-11.98
			c4.24,0,8.27,1.85,10.92,5.76V54.99z"/>
		<path class="st0" d="M289.78,19.52c-1.72,0-3.11,1.32-3.11,3.04c0,1.79,1.39,3.04,3.11,3.04c1.79,0,3.18-1.26,3.18-3.04
			C292.96,20.84,291.57,19.52,289.78,19.52z"/>
		<rect x="287.53" y="34.15" class="st0" width="4.5" height="30.57"/>
		<path class="st0" d="M347.82,60.75c-1.65,0.46-3.57,0.79-5.16,0.79c-4.63,0-6.82-2.25-6.82-7.81V38.05h11.58v-3.9h-11.58V22.83
			h-4.5v11.32h-6.75h-1.39h-10.92v-8.01c0-4.43,2.85-7.35,7.15-7.35c1.26,0,3.18,0.26,4.83,0.66l0.73-3.9
			c-2.25-0.66-4.57-0.93-6.35-0.93c-6.49,0-10.85,4.57-10.85,11.51v8.01h-8.93v3.9h8.93v26.67h4.5V38.05h10.92h1.39h6.75v15.68
			c0,7.94,3.57,11.98,10.59,11.98c2.05,0,3.84-0.26,6.62-1.06L347.82,60.75z"/>
	</g>
	<path class="st1" d="M393.3,26.68c0.94-1.87,1.52-3.85,1.73-5.94c0.17-1.72,0.12-3.43-0.21-5.12c-0.29-1.51-0.82-2.96-1.52-4.33
		c-1.49-2.91-3.56-5.26-6.43-6.88c-1.62-0.92-3.33-1.55-5.17-1.88c-2.15-0.38-4.31-0.4-6.45,0.02c-1.92,0.38-3.72,1.1-5.41,2.11
		c-2.5,1.5-4.51,3.46-5.93,6.03c-1.38,2.5-2.04,5.18-2.05,8.02c-0.01,3.6,0.01,7.2,0.01,10.8c0.01,4.64,0.02,9.27,0.03,13.91
		c0,0.15,0.01,0.3,0.02,0.52c0.22-0.09,0.36-0.14,0.5-0.2c1.89-0.8,3.77-1.6,5.66-2.4c5.65-2.39,11.31-4.77,16.95-7.16
		c1.59-0.67,3.06-1.53,4.38-2.66C391,30.14,392.35,28.57,393.3,26.68z M387.04,24.42c-3.01,4.55-9.2,5.81-13.75,2.8l-0.42-0.28
		c-4.55-3.01-5.81-9.2-2.8-13.75l0.28-0.42c3.01-4.55,9.2-5.81,13.75-2.8l0.42,0.28c4.55,3.01,5.81,9.2,2.8,13.75L387.04,24.42z"/>
	<path class="st1" d="M7.12,60.79c2.93,3.02,6.85,4.69,11.05,4.69c4.2,0,7.88-1.37,10.64-3.96l0.21-0.2v3.36h4.75V34.04h-4.75v3.36
		l-0.21-0.2c-2.76-2.59-6.44-3.96-10.64-3.96c-8.6,0-15.6,7.23-15.6,16.12C2.58,53.71,4.19,57.77,7.12,60.79z M18.84,37.65
		c4.38,0,7.81,1.79,10.17,5.32L29.03,43v12.73l-0.02,0.03c-2.37,3.53-5.79,5.32-10.17,5.32c-6.45,0-11.51-5.14-11.51-11.71
		C7.33,42.79,12.38,37.65,18.84,37.65z"/>
	<path class="st1" d="M67.75,54.41c-0.98,4.11-4.54,6.66-9.31,6.66c-6.44,0-11.11-4.92-11.11-11.71S52,37.65,58.44,37.65
		c4.69,0,8.34,2.64,9.31,6.73h4.95c-1.23-6.67-6.95-11.14-14.26-11.14c-9.04,0-15.86,6.93-15.86,16.12s6.82,16.12,15.86,16.12
		c7.31,0,13.02-4.44,14.26-11.07H67.75z"/>
	<path class="st1" d="M96.38,61.01c-4.57,0-6.71-2.43-6.71-7.65V38.11h11.51v-4.08H89.67V22.65h-4.75v11.39h-7.96v4.08h7.96v15.24
		c0,8.05,3.7,12.13,10.99,12.13c2.09,0,4.16-0.36,6.31-1.09l-0.68-4.41C100.2,60.46,98.26,61.01,96.38,61.01z"/>
	<g>
		<path class="st1" d="M113.39,25.53c1.85,0,3.3-1.41,3.3-3.2c0-1.83-1.45-3.27-3.3-3.27c-1.84,0-3.23,1.41-3.23,3.27
			C110.16,24.12,111.58,25.53,113.39,25.53z"/>
		<rect x="111.08" y="34.04" class="st1" width="4.75" height="30.65"/>
	</g>
	<polygon class="st1" points="150.98,34.04 139.52,58.71 128.06,34.04 123,34.04 137.3,64.68 141.74,64.68 156.04,34.04 	"/>
	<g>
		<rect x="165.08" y="34.04" class="st1" width="4.75" height="30.65"/>
		<path class="st1" d="M167.39,25.53c1.85,0,3.3-1.41,3.3-3.2c0-1.83-1.45-3.27-3.3-3.27c-1.84,0-3.23,1.41-3.23,3.27
			C164.16,24.12,165.58,25.53,167.39,25.53z"/>
	</g>
	<path class="st1" d="M196.38,61.01c-4.57,0-6.71-2.43-6.71-7.65V38.11h11.51v-4.08h-11.51V22.65h-4.75v11.39h-7.96v4.08h7.96v15.24
		c0,8.05,3.7,12.13,10.99,12.13c2.09,0,4.16-0.36,6.31-1.09l-0.68-4.41C200.2,60.46,198.26,61.01,196.38,61.01z"/>
	<polygon class="st1" points="235.89,34.04 223.97,60.78 223.85,60.53 211.12,34.04 206.01,34.04 221.67,65.87 221.65,65.92 
		215.34,80.07 220.4,80.07 240.95,34.04 	"/>
</g>
</svg>
