<svg xmlns="http://www.w3.org/2000/svg" width="23.672" height="25.097" viewBox="0 0 23.672 25.097">
  <g id="Group_50" data-name="Group 50" transform="translate(0)">
    <g id="Group_43" data-name="Group 43">
      <g id="Group_39" data-name="Group 39">
        <path id="Path_33" data-name="Path 33" d="M105.572,82.742a2.99,2.99,0,0,0-4.34,0,3.454,3.454,0,0,0,0,4.642,5.761,5.761,0,0,0,.826.709l-4.683,0A1.532,1.532,0,0,0,95.9,89.665l0,2.367a.773.773,0,0,0,.742.791h3.634l-.014-.014,4.04-.3a2.194,2.194,0,0,0,1.861-1.341l1.537-3.636A9.832,9.832,0,0,0,105.572,82.742Zm.59,5.3s-.058.051-.273.051a7.087,7.087,0,0,1-3.609-1.818,1.808,1.808,0,0,1,0-2.42,1.542,1.542,0,0,1,2.239,0C105.519,84.924,106.51,87.658,106.162,88.04Zm11.924.053H113.4a6.06,6.06,0,0,0,.823-.707,3.457,3.457,0,0,0,0-4.638,2.99,2.99,0,0,0-4.34,0,9.83,9.83,0,0,0-2.119,4.79l1.493,3.651a2.192,2.192,0,0,0,1.848,1.357l3.325.281,4.385,0a.771.771,0,0,0,.741-.79V89.674A1.535,1.535,0,0,0,118.086,88.093Zm-8.514,0c-.213,0-.272-.049-.272-.049-.346-.38.643-3.114,1.644-4.184a1.5,1.5,0,0,1,2.239,0,1.8,1.8,0,0,1,0,2.416A7.057,7.057,0,0,1,109.571,88.09Z" transform="translate(-95.893 -81.808)" fill="#fff"/>
      </g>
      <path id="Path_34" data-name="Path 34" d="M154.59,109.91l.038-.094.041.1" transform="translate(-142.789 -104.185)" fill="#fff"/>
    </g>
    <g id="Group_45" data-name="Group 45" transform="translate(13.331 13.767)">
      <path id="Path_35" data-name="Path 35" d="M162.2,152.521v9.1h7.587A1.572,1.572,0,0,0,171.3,160v-9.712h-6.87A2.234,2.234,0,0,0,162.2,152.521Z" transform="translate(-162.2 -150.287)" fill="#fff"/>
    </g>
    <g id="Group_48" data-name="Group 48" transform="translate(1.191 13.767)">
      <path id="Path_36" data-name="Path 36" d="M101.816,150.287V160a1.571,1.571,0,0,0,1.517,1.619h7.587v-9.1a2.234,2.234,0,0,0-2.234-2.234Z" transform="translate(-101.816 -150.287)" fill="#fff"/>
    </g>
  </g>
</svg>
