<?xml version="1.0" encoding="utf-8"?>
<!-- Generator: Adobe Illustrator 24.1.0, SVG Export Plug-In . SVG Version: 6.00 Build 0)  -->
<svg version="1.1" id="Layer_1" xmlns="http://www.w3.org/2000/svg" xmlns:xlink="http://www.w3.org/1999/xlink" x="0px" y="0px"
	 viewBox="0 0 346 82.3" style="enable-background:new 0 0 346 82.3;" xml:space="preserve">
<style type="text/css">
	.st0{fill:#FFFFFF;}
	.st1{fill:#60BFB6;}
</style>
<g>
	<g>
		<path class="st0" d="M217.3,37.4c-2.9-2.7-6.9-4.4-11.5-4.4c-8.7,0-15.4,6.9-15.4,15.9c0,8.5,6.7,15.7,15.4,15.7
			c4.6,0,8.6-1.7,11.5-4.4v5.4h-0.1c0,6.8-4.3,10.9-10.7,10.9c-5.6,0-9.5-2.9-10.5-7.2h-4.6c1.1,6.7,7.1,11.4,15.1,11.4
			c9.1,0,15.2-5.9,15.2-15.1V34.1h-4.5V37.4z M217.3,54.9c-2.6,3.9-6.7,5.8-10.9,5.8c-6.7,0-11.4-5.6-11.4-11.7
			c0-6.7,4.8-12,11.4-12c4.2,0,8.3,1.9,10.9,5.8V54.9z"/>
		<rect x="234.3" y="34.1" class="st0" width="4.5" height="30.6"/>
		<path class="st0" d="M236.5,19.4c-1.7,0-3.1,1.3-3.1,3c0,1.8,1.4,3,3.1,3c1.8,0,3.2-1.3,3.2-3C239.7,20.8,238.3,19.4,236.5,19.4z"
			/>
		<path class="st0" d="M294.6,60.7c-1.7,0.5-3.6,0.8-5.2,0.8c-4.6,0-6.8-2.2-6.8-7.8V38h11.6v-3.9h-11.6V22.7h-4.5v11.3h-6.8h-1.4
			H259v-8c0-4.4,2.8-7.3,7.1-7.3c1.3,0,3.2,0.3,4.8,0.7l0.7-3.9c-2.2-0.7-4.6-0.9-6.4-0.9c-6.5,0-10.9,4.6-10.9,11.5v8h-8.9V38h8.9
			v26.7h4.5V38h10.9h1.4h6.8v15.7c0,7.9,3.6,12,10.6,12c2.1,0,3.8-0.3,6.6-1.1L294.6,60.7z"/>
	</g>
	<path class="st1" d="M27.5,54.3c-1,4.1-4.5,6.7-9.3,6.7c-6.4,0-11.1-4.9-11.1-11.7s4.7-11.7,11.1-11.7c4.7,0,8.3,2.6,9.3,6.7h4.9
		c-1.2-6.7-6.9-11.1-14.3-11.1c-9,0-15.9,6.9-15.9,16.1s6.8,16.1,15.9,16.1c7.3,0,13-4.4,14.3-11.1H27.5z"/>
	<path class="st1" d="M57.4,37.8v-4.5c-4.7,0-8.7,2-11.6,5.7l-0.2,0.3v-5.3h-4.8v30.6h4.8v-20l0,0C48.4,40.3,52.4,37.9,57.4,37.8z"
		/>
	<path class="st1" d="M76.6,65.4c4.2,0,7.9-1.5,10.8-4.3l0.2-0.2v3.7h4.8V33.9h-4.8v21.5l0,0c-2.6,3.5-6.4,5.5-10.1,5.5
		c-5.6,0-9.1-3.8-9.1-9.8V33.9h-4.8v17.5C63.6,59.9,68.7,65.4,76.6,65.4z"/>
	<g>
		<rect x="104.8" y="33.9" class="st1" width="4.8" height="30.6"/>
		<path class="st1" d="M107.1,25.4c1.8,0,3.3-1.4,3.3-3.2c0-1.8-1.4-3.3-3.3-3.3c-1.8,0-3.2,1.4-3.2,3.3
			C103.9,24,105.3,25.4,107.1,25.4z"/>
	</g>
	<path class="st1" d="M132.9,65.4c7.8,0,12.8-3.7,12.8-9.3c0-4.7-2.9-7.5-9-8.5l-6.1-1c-3.9-0.7-5.8-2.2-5.8-4.8
		c0-2.9,2.9-4.7,7.5-4.7c5.2,0,8.2,2,8.7,5.7h4.4c-0.8-8.6-9.5-9.5-13.2-9.5c-7.4,0-12.2,3.6-12.2,9.1c0,4.5,3,7.2,9,8.3l6.9,1.1
		c3.3,0.6,5.1,2.3,5.1,4.8c0,3.1-3.1,5.1-8.1,5.1c-5.5,0-8.8-2.1-9.8-6.3h-4.4C119.7,61.7,124.7,65.4,132.9,65.4z"/>
	<path class="st1" d="M183.8,48.9c-0.1-9.3-6.2-15.7-15-15.7c-4.4,0-8.3,1.7-11.2,4.7c-2.8,3-4.3,7-4.3,11.5
		c0,9.3,6.6,16.1,15.8,16.1c6.5,0,11.7-3.2,13.6-8.3h-5.3c-1.3,2.6-4.3,4-8.2,4c-6,0-10.3-4-11-10.3l0-0.1h25.4v-0.1l0.2,0.1
		C183.8,50,183.8,49.5,183.8,48.9z M158.2,47.3l0-0.1c0.8-6,5-9.9,10.7-9.9c5.8,0,9.6,3.7,10.1,9.9l0,0.1H158.2z"/>
	<path class="st1" d="M341.4,40.6c1.2-2.6,2.4-5.2,3.5-7.8c0.1-0.3,0.2-0.7,0.2-1c-0.1-1-1-1.7-2.1-1.5c-1.3,0.2-2.5,0.4-3.8,0.7
		c-1.7,0.3-3.4,0.6-5,0.9c-1,0.2-1.7,1.1-1.5,2.1c0.1,0.5,0.4,0.9,0.7,1.3c0.2,0.3,0.5,0.6,0.8,1c-2,1.5-4.3,2.4-6.7,2.6
		c-2.2,0.2-4.3-0.1-6.4-0.9c0.1-0.1,0.1-0.2,0.1-0.2c1.5-2.3,3-4.5,4.5-6.8c2.6-3.9,5.1-7.8,7.7-11.6c1.1-1.6,2.1-3.2,3.2-4.9
		c0.1-0.2,0.2-0.3,0.5-0.3c0.4,0,0.9,0.1,1.4,0.1c3.4-0.2,6-3.2,5.9-6.6C344,5.7,343.4,4.2,342,3c-2.4-2.2-6.2-2.2-8.6,0
		c-2.2,2-2.7,5.4-1.2,8c0.1,0.2,0.1,0.4,0,0.6c-2.1,3.2-4.2,6.4-6.3,9.6c-2.9,4.4-5.9,8.9-8.8,13.3c-0.1,0.2-0.3,0.4-0.5,0.7
		c-0.1-0.1-0.1-0.1-0.1-0.1c-1.5-1.5-2.6-3.2-3.3-5.2c-0.8-2.4-1-4.8-0.5-7.3c0-0.2,0.1-0.3,0.4-0.2c0.4,0.1,0.9,0.2,1.3,0.4
		c1.5,0.4,2.7-0.8,2.3-2.3c-0.7-2.9-1.4-5.7-2-8.6c-0.2-0.7-0.6-1.2-1.3-1.4c-0.7-0.2-1.3,0-1.8,0.5c-0.3,0.3-0.6,0.7-0.9,1
		c-1.7,1.8-3.3,3.6-5,5.4c-1,1.1-0.6,2.8,0.9,3.2c0.4,0.1,0.8,0.2,1.1,0.3c0.2,0.1,0.3,0.1,0.2,0.4c-0.5,1.8-0.6,3.6-0.5,5.4
		c0.1,2.2,0.6,4.3,1.4,6.3c0.9,2.1,2.1,4,3.8,5.7c1.4,1.4,3,2.6,4.8,3.5c3,1.5,6.1,2.2,9.4,2c2-0.1,3.8-0.5,5.7-1.2
		c1.6-0.6,3-1.4,4.4-2.4c0.3-0.2,0.3-0.2,0.5,0.1c0.3,0.3,0.5,0.7,0.8,1c0.5,0.6,1.3,0.8,2.1,0.5C340.9,41.6,341.1,41.1,341.4,40.6z
		 M337.6,10.3c-1.4-0.1-2.5-1.3-2.4-2.8c0.1-1.4,1.3-2.5,2.7-2.5c1.4,0.1,2.6,1.3,2.5,2.7C340.2,9.3,339,10.4,337.6,10.3z"/>
</g>
</svg>
