<?xml version="1.0" encoding="utf-8"?>
<!-- Generator: Adobe Illustrator 24.1.0, SVG Export Plug-In . SVG Version: 6.00 Build 0)  -->
<svg version="1.1" id="Layer_1" xmlns="http://www.w3.org/2000/svg" xmlns:xlink="http://www.w3.org/1999/xlink" x="0px" y="0px"
	 viewBox="0 0 81.1 64.7" style="enable-background:new 0 0 81.1 64.7;" xml:space="preserve">
<style type="text/css">
	.st0{fill:#E25252;}
	.st1{fill:#FFFFFF;}
	.st2{fill:#B5B7BA;}
	
		.st3{fill:none;stroke:#FFFFFF;stroke-width:2;stroke-linecap:round;stroke-linejoin:round;stroke-miterlimit:10;stroke-dasharray:0,4;}
</style>
<g>
	<g>
		<g>
			<g>
				<g>
					<g>
						<path class="st0" d="M64.8,5.1c-0.5-3.4-3.9-5.7-7.3-4.9C54.1,1,51.7,4.5,52.2,8c0.1,0.6,0.3,1.3,0.6,2.1l-7.9-5.3
							c-1.4-0.9-3.3-0.5-4.3,1l-2.7,4c-0.5,0.7-0.3,1.7,0.4,2.2l6.1,4.1l0,0l7.1,4.1c1.5,0.8,3.2,0.8,4.7-0.1l6.7-4.4
							C64.9,12.4,65.1,6.8,64.8,5.1z M59.8,14.7c0,0-0.2,0-0.5-0.2c-1.7-1.2-3.7-5.3-4-7.2C55,5.5,56.2,3.6,58,3.2
							c1.7-0.4,3.5,0.8,3.8,2.6C62.3,8.7,60.8,14.4,59.8,14.7z M79.8,28.3L71.9,23c0.8,0,1.6-0.1,2.2-0.3c3.5-0.8,5.8-4.3,5.3-7.8
							c-0.5-3.4-3.9-5.7-7.3-4.9c-1.7,0.4-6.8,2.7-9,5.7l-1.6,7.8c-0.3,1.6,0.3,3.3,1.6,4.4l5.3,4.3l7.4,5c0.7,0.5,1.6,0.2,2.1-0.5
							l2.7-4C81.5,31.2,81.2,29.3,79.8,28.3z M65.5,18.6c-0.4-0.2-0.4-0.4-0.4-0.4c-0.1-1,4.6-4.5,7.5-5.2c0.9-0.2,1.7,0,2.4,0.4
							c0.7,0.5,1.2,1.2,1.3,2.1c0.3,1.8-0.9,3.7-2.8,4.1C71.8,20.1,67.2,19.8,65.5,18.6z"/>
					</g>
				</g>
			</g>
		</g>
		<polyline class="st0" points="63,15.6 63.1,15.5 63.1,15.7 		"/>
	</g>
</g>
<g>
	<g>
		<g>
			<path class="st1" d="M56.6,46.2v18.5H72c1.7,0,3.1-1.5,3.1-3.3V41.7h-14C58.6,41.7,56.6,43.7,56.6,46.2z"/>
		</g>
	</g>
</g>
<g>
	<g>
		<path class="st2" d="M31.9,41.7v19.7c0,1.8,1.4,3.3,3.1,3.3h15.4V46.2c0-2.5-2-4.5-4.5-4.5H31.9z"/>
	</g>
</g>
<path class="st3" d="M63,37.5c-10.1,2.9-14.6-15.8-22.7-12.3c-4.9,2.1-4.4,5.4-2.7,8.2c1.5,1.8,6.1,1.6,7.7-0.9
	c2.8-5.9-4.7-13.5-11.2-9.9S21,29.8,12.9,27.9"/>
<path class="st1" d="M7.3,21.9l-1.2-3l-1.3,3c-0.3,0.6-0.8,1-1.5,1.1L0,23.2l2.5,2.2c0.5,0.4,0.7,1.1,0.5,1.8l-0.8,3.2L5,28.6
	c0.6-0.3,1.3-0.3,1.8,0l2.8,1.7l-0.7-3.2c-0.1-0.6,0.1-1.3,0.6-1.7l2.5-2.1L8.7,23C8.1,23,7.5,22.5,7.3,21.9z"/>
</svg>
