<svg xmlns="http://www.w3.org/2000/svg" width="70.145" height="70.145" viewBox="0 0 70.145 70.145"><path d="M64.3,41.68V11.691a5.851,5.851,0,0,0-5.845-5.845H49.686V1.461a1.461,1.461,0,0,0-2.923,0V5.845h-26.3V1.461a1.461,1.461,0,1,0-2.923,0V5.845H5.845A5.851,5.851,0,0,0,0,11.691V58.454A5.851,5.851,0,0,0,5.845,64.3H41.68A16.068,16.068,0,1,0,64.3,41.68ZM2.923,11.691A2.927,2.927,0,0,1,5.845,8.768H17.536v2.923a2.923,2.923,0,1,0,2.923,2.923V8.768h26.3v2.923a2.923,2.923,0,1,0,2.923,2.923V8.768h8.768a2.927,2.927,0,0,1,2.923,2.923v8.768H2.923ZM5.845,61.377a2.927,2.927,0,0,1-2.923-2.923V23.382H61.377V39.77A16.047,16.047,0,0,0,39.77,61.377ZM54.07,67.222A13.152,13.152,0,1,1,67.222,54.07,13.167,13.167,0,0,1,54.07,67.222Z" transform="translate(0 0)" fill="#d78d00"/><path d="M345.708,352.428l-9.2,9.2-3.351-3.351a1.461,1.461,0,0,0-2.066,2.066l4.384,4.384a1.461,1.461,0,0,0,2.067,0l10.23-10.23a1.461,1.461,0,1,0-2.067-2.066Z" transform="translate(-285.365 -303.775)" fill="#d78d00"/><g transform="translate(12.113 29.173)"><path d="M99.543,217.941a4.474,4.474,0,0,1-.383,1.8,9.141,9.141,0,0,1-.983,1.71,13.958,13.958,0,0,1-1.366,1.608q-.766.779-1.532,1.519-.409.383-.919.919t-.97,1.072A10.774,10.774,0,0,0,92.6,227.6a1.872,1.872,0,0,0-.357.83H100.1v2.6H88.847a4.075,4.075,0,0,1-.026-.5v-.447a6.266,6.266,0,0,1,.4-2.259,8.568,8.568,0,0,1,1.034-1.927,13.33,13.33,0,0,1,1.43-1.685q.791-.791,1.583-1.557.613-.587,1.174-1.149a11.33,11.33,0,0,0,.983-1.11,5.563,5.563,0,0,0,.677-1.123,2.9,2.9,0,0,0,.255-1.187,2.188,2.188,0,0,0-.766-1.889,3.067,3.067,0,0,0-1.864-.562,4.179,4.179,0,0,0-1.327.2,5.58,5.58,0,0,0-1.085.485,6.721,6.721,0,0,0-.83.574q-.358.294-.536.472l-1.532-2.17a8.536,8.536,0,0,1,2.515-1.646,7.712,7.712,0,0,1,3.1-.625,5.694,5.694,0,0,1,4.174,1.34A4.95,4.95,0,0,1,99.543,217.941Z" transform="translate(-88.413 -212.938)" fill="#d78d00" stroke="#d78d00" stroke-width="1"/><path d="M198.567,247.6a97.3,97.3,0,0,1-4.79,13.785,13.858,13.858,0,0,1-1.048,1.966,5.842,5.842,0,0,1-1.2,1.353,4.285,4.285,0,0,1-1.482.779,7.106,7.106,0,0,1-3.309.089,4.778,4.778,0,0,1-1.061-.332l.562-2.476a5.026,5.026,0,0,0,1.821.357,2.833,2.833,0,0,0,1.885-.574,4.707,4.707,0,0,0,1.192-1.774q-1.462-2.808-2.808-6.127a67.3,67.3,0,0,1-2.4-7.046h3.293q.256,1.072.628,2.323t.807,2.54q.435,1.289.922,2.565t.974,2.374q.813-2.272,1.525-4.838t1.3-4.965Z" transform="translate(-172.351 -242.847)" fill="#d78d00" stroke="#d78d00" stroke-width="1"/></g></svg>