<svg xmlns="http://www.w3.org/2000/svg" width="78.741" height="78.741" viewBox="0 0 78.741 78.741"><path d="M77.2,68.283H74.127V8.612a1.538,1.538,0,0,0-1.538-1.538H61.26V1.538A1.538,1.538,0,0,0,59.722,0h-40.7a1.538,1.538,0,0,0-1.538,1.538V7.074H6.152A1.538,1.538,0,0,0,4.614,8.612V68.283H1.538A1.538,1.538,0,0,0,0,69.821V77.2a1.538,1.538,0,0,0,1.538,1.538H32.45a1.538,1.538,0,0,0,0-3.076H3.076V71.359H75.665v4.306H46.291a1.538,1.538,0,0,0,0,3.076H77.2A1.538,1.538,0,0,0,78.741,77.2V69.821A1.538,1.538,0,0,0,77.2,68.283ZM20.557,3.076H58.184v4H20.557ZM37.832,68.283h-8V59.055a9.549,9.549,0,0,1,8-9.409Zm3.076,0V49.646a9.549,9.549,0,0,1,8,9.409v9.227Zm11.073,0V59.055a12.611,12.611,0,1,0-25.222,0v9.227H7.69V10.15H71.051V68.283Z" fill="#d78d00"/><path d="M86.92,110H79.538A1.538,1.538,0,0,0,78,111.538v7.382a1.538,1.538,0,0,0,1.538,1.538H86.92a1.538,1.538,0,0,0,1.538-1.538v-7.382A1.538,1.538,0,0,0,86.92,110Zm-1.538,7.382H81.076v-4.306h4.306Z" transform="translate(-66.004 -93.083)" fill="#d78d00"/><path d="M182.92,110h-7.382A1.538,1.538,0,0,0,174,111.538v7.382a1.538,1.538,0,0,0,1.538,1.538h7.382a1.538,1.538,0,0,0,1.538-1.538v-7.382A1.538,1.538,0,0,0,182.92,110Zm-1.538,7.382h-4.306v-4.306h4.306Z" transform="translate(-147.24 -93.083)" fill="#d78d00"/><path d="M278.92,110h-7.382A1.538,1.538,0,0,0,270,111.538v7.382a1.538,1.538,0,0,0,1.538,1.538h7.382a1.538,1.538,0,0,0,1.538-1.538v-7.382A1.538,1.538,0,0,0,278.92,110Zm-1.538,7.382h-4.306v-4.306h4.306Z" transform="translate(-228.477 -93.083)" fill="#d78d00"/><path d="M374.92,110h-7.382A1.538,1.538,0,0,0,366,111.538v7.382a1.538,1.538,0,0,0,1.538,1.538h7.382a1.538,1.538,0,0,0,1.538-1.538v-7.382A1.538,1.538,0,0,0,374.92,110Zm-1.538,7.382h-4.306v-4.306h4.306Z" transform="translate(-309.713 -93.083)" fill="#d78d00"/><path d="M86.92,206H79.538A1.538,1.538,0,0,0,78,207.538v7.382a1.538,1.538,0,0,0,1.538,1.538H86.92a1.538,1.538,0,0,0,1.538-1.538v-7.382A1.538,1.538,0,0,0,86.92,206Zm-1.538,7.382H81.076v-4.306h4.306Z" transform="translate(-66.004 -174.319)" fill="#d78d00"/><path d="M182.92,206h-7.382A1.538,1.538,0,0,0,174,207.538v7.382a1.538,1.538,0,0,0,1.538,1.538h7.382a1.538,1.538,0,0,0,1.538-1.538v-7.382A1.538,1.538,0,0,0,182.92,206Zm-1.538,7.382h-4.306v-4.306h4.306Z" transform="translate(-147.24 -174.319)" fill="#d78d00"/><path d="M278.92,206h-7.382A1.538,1.538,0,0,0,270,207.538v7.382a1.538,1.538,0,0,0,1.538,1.538h7.382a1.538,1.538,0,0,0,1.538-1.538v-7.382A1.538,1.538,0,0,0,278.92,206Zm-1.538,7.382h-4.306v-4.306h4.306Z" transform="translate(-228.477 -174.319)" fill="#d78d00"/><path d="M374.92,206h-7.382A1.538,1.538,0,0,0,366,207.538v7.382a1.538,1.538,0,0,0,1.538,1.538h7.382a1.538,1.538,0,0,0,1.538-1.538v-7.382A1.538,1.538,0,0,0,374.92,206Zm-1.538,7.382h-4.306v-4.306h4.306Z" transform="translate(-309.713 -174.319)" fill="#d78d00"/><path d="M86.92,302H79.538A1.538,1.538,0,0,0,78,303.538v7.382a1.538,1.538,0,0,0,1.538,1.538H86.92a1.538,1.538,0,0,0,1.538-1.538v-7.382A1.538,1.538,0,0,0,86.92,302Zm-1.538,7.382H81.076v-4.306h4.306Z" transform="translate(-66.004 -255.555)" fill="#d78d00"/><path d="M374.92,302h-7.382A1.538,1.538,0,0,0,366,303.538v7.382a1.538,1.538,0,0,0,1.538,1.538h7.382a1.538,1.538,0,0,0,1.538-1.538v-7.382A1.538,1.538,0,0,0,374.92,302Zm-1.538,7.382h-4.306v-4.306h4.306Z" transform="translate(-309.713 -255.555)" fill="#d78d00"/><path d="M247.538,492a1.539,1.539,0,1,0,1.087.451A1.55,1.55,0,0,0,247.538,492Z" transform="translate(-208.168 -416.335)" fill="#d78d00"/></svg>