<svg xmlns="http://www.w3.org/2000/svg" width="94.039" height="71.998" viewBox="0 0 94.039 71.998"><path d="M2.755,67.2V65A2.245,2.245,0,0,1,5,62.756H58.885A2.245,2.245,0,0,1,61.127,65v43.385H2.755V73.66M0,73.66v46.694a5,5,0,0,0,5,5H8.163a8.115,8.115,0,0,0,15.962,0H58.487c.761,0-.924-.617-.924-1.378s9.32-1.378-.213-1.378H24.156a8.115,8.115,0,0,0-16.024,0H5a2.245,2.245,0,0,1-2.242-2.242v-9.217H61.127V122.6h-8.77a1.378,1.378,0,1,0,0,2.755H70.222a8.115,8.115,0,0,0,15.962,0h2.7a5.16,5.16,0,0,0,5.154-5.154V101.835a5.206,5.206,0,0,0-5.2-5.2H80.933V75.274a5.16,5.16,0,0,0-5.155-5.154h-11.9V65a5,5,0,0,0-5-5H5a5,5,0,0,0-5,5v2.2m16.144,51.324a5.359,5.359,0,1,1-5.359,5.359,5.365,5.365,0,0,1,5.359-5.359ZM78.2,129.244a5.359,5.359,0,1,1,5.359-5.359,5.365,5.365,0,0,1-5.359,5.359ZM91.284,109.3H87.618a1.378,1.378,0,1,1,0-2.755h3.666Zm0-5.51H87.618a4.133,4.133,0,1,0,0,8.265h3.666V120.2a2.4,2.4,0,0,1-2.4,2.4H86.215a8.115,8.115,0,0,0-16.024,0H63.882V72.874h11.9a2.4,2.4,0,0,1,2.4,2.4v.321H68.955a1.377,1.377,0,0,0-1.378,1.378v21.04a1.377,1.377,0,0,0,1.378,1.378H88.838a2.448,2.448,0,0,1,2.445,2.445v1.959ZM78.178,78.35V96.634H70.333V78.35Z" transform="translate(0 -60.001)" fill="#d78d00"/><path d="M372.494,298.432H369.31a1.378,1.378,0,0,0,0,2.755h3.185a1.378,1.378,0,1,0,0-2.755Z" transform="translate(-300.354 -254.64)" fill="#d78d00"/><path d="M187.3,170.2a1.378,1.378,0,0,0,0-2.755h-5.507a1.377,1.377,0,0,0-1.378,1.378v11.017a1.377,1.377,0,0,0,1.378,1.378H187.3a1.378,1.378,0,1,0,0-2.755h-4.129v-2.753H187.3a1.378,1.378,0,0,0,0-2.755h-4.129V170.2Z" transform="translate(-147.277 -147.709)" fill="#d78d00"/><path d="M246.279,170.2a1.378,1.378,0,1,0,0-2.755h-5.507a1.377,1.377,0,0,0-1.378,1.378v11.017a1.377,1.377,0,0,0,1.378,1.378h5.507a1.378,1.378,0,1,0,0-2.755H242.15v-2.753h4.129a1.378,1.378,0,0,0,0-2.755H242.15V170.2Z" transform="translate(-195.425 -147.709)" fill="#d78d00"/><path d="M70.315,170.2a1.378,1.378,0,1,0,0-2.755H64.809a1.377,1.377,0,0,0-1.378,1.378v11.017a1.378,1.378,0,0,0,2.755,0v-4.131h4.129a1.378,1.378,0,1,0,0-2.755H66.186V170.2Z" transform="translate(-51.781 -147.709)" fill="#d78d00"/><path d="M129.693,174.33v-5.509a1.377,1.377,0,0,0-1.378-1.378h-5.507a1.377,1.377,0,0,0-1.378,1.378v11.017a1.378,1.378,0,1,0,2.755,0v-3.709l2.983,4.473a1.378,1.378,0,1,0,2.292-1.529l-2.245-3.367h1.1a1.378,1.378,0,0,0,1.378-1.378Zm-2.755-1.378h-2.752V170.2h2.752Z" transform="translate(-99.128 -147.71)" fill="#d78d00"/></svg>