<svg xmlns="http://www.w3.org/2000/svg" width="63.12" height="79.027" viewBox="0 0 63.12 79.027"><g transform="translate(0 42.281)"><g transform="translate(0 0)"><path d="M62.3,242.327c-4.247-3.615-7.415,1.374-20.219,14.422l-11.813,0a1.122,1.122,0,0,1-.976-1.224c0-1.153.4-1.6.976-1.6h7.3a5.425,5.425,0,0,0,5.277-5.653,5.284,5.284,0,0,0-5.277-5.653c-4.576,0-7.87.41-10-1.018a11.225,11.225,0,0,0-6.1-1.812,11.854,11.854,0,0,0-9.339,4.8L0,259.575l13.518,16.96,4.506-5.653H40.841A8.3,8.3,0,0,0,47,267.945L62.449,246.2A2.89,2.89,0,0,0,62.3,242.327Zm-16.884,23.6a6.248,6.248,0,0,1-4.571,2.123H17.091l-3.573,4.483L3.2,259.587l10.546-13.028a9.822,9.822,0,0,1,7.726-3.943,9.368,9.368,0,0,1,5.033,1.473c2.53,1.7,5.225,1.351,11.06,1.351.029,0,3.024.031,3.024,2.827a2.958,2.958,0,0,1-3.024,2.827h-7.3c-1.694,0-3.229,1.58-3.229,4.429,0,2.239,1.444,4.051,3.229,4.051l12.612,0c13.46-13.718,15.242-16.745,17.819-15.154Z" transform="translate(0 -239.789)" fill="#d78d00"/></g></g><g transform="translate(30.329 0)"><g transform="translate(0)"><path d="M230.672,23.091a5.871,5.871,0,0,0-4.963,3.463,9.656,9.656,0,0,0-.919,5.789A15.768,15.768,0,0,0,222.7,34.9c.207-6.038.52-9.82.883-12.629,2.623.088,5.135-2.8,6.428-5.933,2.647-5.942,1.419-12.036,1.025-15.88-2.068,2.527-11.1-.435-14.683,7.264a12.02,12.02,0,0,0,.543,10.569,11.091,11.091,0,0,0,3.357,3.14,151.145,151.145,0,0,0-1.131,17.977c-.034,1.58.978,2.889,2.233,2.889h.029a2.36,2.36,0,0,0,2.057-1.809,13.077,13.077,0,0,1,2.832-4.825,5.461,5.461,0,0,0,4.373,2.541c2.221,0,4.567-1.662,6.221-5.249a25.219,25.219,0,0,1,2.253-4.254C237.271,27.662,234.148,23.091,230.672,23.091Zm-10.1-4.65a7.856,7.856,0,0,1-1.881-1.854A8.614,8.614,0,0,1,218.3,9.15c1.714-3.689,5.38-4.135,8.613-4.531.807-.1,1.575-.192,2.289-.336.34,3.27.46,7.05-1.19,10.758-.885,2.148-2.638,4.466-4.533,4.4a27.039,27.039,0,0,1,2.145-11.753C223.077,8.785,221.32,13.348,220.574,18.441Zm14.347,13.1c-1.124,2.439-2.681,3.839-4.272,3.839-1.5,0-2.194-.933-3.136-2.2a12.364,12.364,0,0,1,5.838-3.675,11.232,11.232,0,0,0-6.385,1.95,6.51,6.51,0,0,1,.647-3.392,3.712,3.712,0,0,1,3.062-2.154c1.748,0,3.866,2.182,5.263,3.516C235.64,30.016,235.3,30.712,234.921,31.54Z" transform="translate(-215.381 -0.461)" fill="#d78d00"/></g></g><g transform="translate(18.022 22.673)"><path d="M141.655,132.771c-1-2.482-2.909-3.974-5.144-3.974a7.482,7.482,0,0,0-5.213,2.6,19.822,19.822,0,0,1-3.314,2.968c1.577,1.979,3.377,8.616,7.309,9.351a5.1,5.1,0,0,0,4.616-1.348,8.533,8.533,0,0,0,2.5-4.9A9.548,9.548,0,0,0,141.655,132.771Zm-3.089,7.329a3.186,3.186,0,0,1-2.94.82c-1.911-.356-3.429-3.748-4.454-5.814.442-.413.953-.91,1.546-1.515a5.58,5.58,0,0,1,3.792-1.967c1.8,0,3.071,1.529,3.521,3.6a10.662,10.662,0,0,0-6.383-.209,11.315,11.315,0,0,1,6.5,2.151A5.686,5.686,0,0,1,138.566,140.1Z" transform="translate(-127.984 -128.797)" fill="#d78d00"/></g></svg>