<svg xmlns="http://www.w3.org/2000/svg" width="92.944" height="67.911" viewBox="0 0 92.944 67.911"><g transform="translate(0 11.958) rotate(-8)"><path d="M15.131,41.39v1.232q0,5.964,0,11.928c0,1.4.616,1.938,2.184,1.95.66.005,1.32,0,1.98,0q10.559,0,21.118-.008,21.484,0,42.969.008c2.068,0,2.53-.4,2.53-2.212q0-26.038,0-52.075C85.916.423,85.43,0,83.376,0Q65.887.006,48.4.013,33.131.013,17.863,0c-2.015,0-2.284.187-2.943,1.84Q8.76,17.29,2.592,32.738c-.778,1.95-1.5,3.918-2.326,5.853-.679,1.591-.114,2.9,2.321,2.828,3.735-.111,7.478-.029,11.218-.029Zm51.08-15.033A5.531,5.531,0,0,0,64.184,19.4a8.9,8.9,0,0,0-8.012-.975c.942-3.475.191-6.3-3.076-8.237-2.719-1.609-5.369-.944-7.8.621-3.471-1.8-6.18-1.738-8.545.158a6.255,6.255,0,0,0-2.284,6.8c.091.395.2.787.326,1.28-3.715-.864-6.877-.307-9.117,2.37-2.008,2.4-1.514,4.86.486,7.094-2.039,2.78-2.325,4.572-.761,6.726,2.224,3.062,5.56,3.611,9.475,2.784-.952,3.357-.348,6.244,2.939,8.251,2.7,1.648,5.348.973,7.822-.5,3.482,2.119,6.925,1.859,9.363-.732a6.22,6.22,0,0,0,1.6-6.013c-.145-.611-.354-1.21-.562-1.908,3.024.831,5.8.811,8.279-.91,2.539-1.762,1.876-5.2.906-7.938Zm16.048,3v1.288q0,10.62,0,21.24c0,1.374,0,1.374-1.514,1.374q-21.383.01-42.765.019c-5.977,0-11.953-.035-17.93,0-1.036.006-1.275-.274-1.274-1.146q.041-23.908.023-47.815c0-.341.044-.681.069-1.055H82.187V26.041Zm-67.368-17.6.179.035a2.175,2.175,0,0,1,.056.351q0,12.609.019,25.218c0,.664-.28.816-.966.81-2.933-.024-5.867-.008-8.8-.016a8.313,8.313,0,0,1-.95-.124ZM31.935,35.413a17.619,17.619,0,0,1-2.655-1.148c-1.483-.966-1.556-2.3-.3-3.5.369-.355.82-.641,1.22-.973a1.471,1.471,0,0,0-.012-2.519c-.348-.286-.73-.541-1.062-.839-1.472-1.323-1.311-2.764.41-3.836a5.236,5.236,0,0,1,5-.121,22.321,22.321,0,0,1,7.828,5.648.761.761,0,0,1-.024.814A22.278,22.278,0,0,1,35.969,33.9C34.7,34.5,33.314,34.9,31.935,35.413ZM58.873,21.176a4.259,4.259,0,0,1,4.057,1.985c.446.983-.043,1.993-1.482,3.062-.14.1-.3.194-.422.309a1.505,1.505,0,0,0,.091,2.476c.352.279.772.5,1.1.794,1.6,1.439,1.394,2.931-.524,4.025a4.8,4.8,0,0,1-4,.311,20.837,20.837,0,0,1-8.686-5.733.741.741,0,0,1,.023-.8,49.865,49.865,0,0,1,4.342-3.954A10.793,10.793,0,0,1,58.873,21.176ZM37.943,40.519A22.285,22.285,0,0,1,38.978,37.9c1.383-2.555,3.726-4.424,6-6.338a.859.859,0,0,1,1.3,0,60.2,60.2,0,0,1,4.633,4.471,12.76,12.76,0,0,1,2.122,3.884A3.292,3.292,0,0,1,51.115,43.7c-1.283.551-2.429.173-3.748-1.234-.117-.124-.205-.322-.352-.363a5.1,5.1,0,0,0-1.979-.424,2.867,2.867,0,0,0-1.431,1.064,3,3,0,0,1-4.107.581A4.3,4.3,0,0,1,37.943,40.519Zm-.319-24.4a14.943,14.943,0,0,1,1.325-2.426,2.664,2.664,0,0,1,3.756-.355,7.152,7.152,0,0,1,.918.951,2.232,2.232,0,0,0,3.439-.041c.277-.3.545-.608.834-.9a2.537,2.537,0,0,1,3.057-.476A3.358,3.358,0,0,1,52.859,16.5,13.155,13.155,0,0,1,51.63,19.38c-1.283,2.3-3.394,4.017-5.466,5.743a1.181,1.181,0,0,1-1.019.027,23.79,23.79,0,0,1-5.776-5.477A23.1,23.1,0,0,1,37.623,16.115Z" transform="translate(0 0)" fill="#d78d00"/></g></svg>