<svg xmlns="http://www.w3.org/2000/svg" width="414.208" height="359.597" viewBox="0 0 414.208 359.597"><g transform="translate(-4.827 -4.785)"><path d="M21.615,344.845l-2.558-7.033-3.195,6.77a4.09,4.09,0,0,1-3.547,2.333l-7.488.234,5.447,5.14a4.07,4.07,0,0,1,1.118,4.091l-2.077,7.194,6.566-3.609a4.04,4.04,0,0,1,4.227.205l6.187,4.212L24.9,357.016a4.033,4.033,0,0,1,1.5-3.959l5.91-4.605-7.425-.938a4.1,4.1,0,0,1-3.273-2.669" fill="#141c36"/><path d="M383.927,223.313h0c-.059.035-.09.053-.1.085a1.778,1.778,0,0,1-2.4-.524,1.657,1.657,0,0,1,.527-2.283l.035-.021a1.79,1.79,0,0,1,2.413.554,1.607,1.607,0,0,1-.477,2.188m11.042-8.087h0a1.762,1.762,0,0,1-2.281-.2,1.593,1.593,0,0,1-.047-2.252,1.262,1.262,0,0,1,.119-.112,1.8,1.8,0,0,1,2.441.08,1.63,1.63,0,0,1-.008,2.307l-.06.057c-.062.035-.106.086-.164.122M371.42,229.049h0a1.533,1.533,0,0,1-.5.241l.03-.02a1.707,1.707,0,0,1-2.191-.994,1.634,1.634,0,0,1,.963-2.1c.037-.013.074-.026.111-.037a1.709,1.709,0,0,1,2.177,1.011,1.628,1.628,0,0,1-.589,1.9m32.718-23.858h0a1.774,1.774,0,0,1-2.058.019,1.6,1.6,0,0,1-.419-2.224c.021-.032.044-.063.069-.094a1.743,1.743,0,0,1,2.394-.388,1.6,1.6,0,0,1,.469,2.214,1.2,1.2,0,0,1-.071.1,1.6,1.6,0,0,1-.384.373m-46.251,26.849h0a1.7,1.7,0,1,1-1.25-3.01,1.8,1.8,0,0,1,1.96,1.467,1.675,1.675,0,0,1-.709,1.544m53.342-38.308h0a1.745,1.745,0,0,1-1.762.187,1.644,1.644,0,0,1-.869-2.156l.022-.049a1.768,1.768,0,0,1,2.336-.793,1.6,1.6,0,0,1,.85,2.1c-.016.038-.033.075-.052.111a1.751,1.751,0,0,1-.525.6m4.8-12.493h0a1.9,1.9,0,0,1-1.5.294,1.718,1.718,0,0,1-1.247-2.052,1.828,1.828,0,0,1,2.15-1.205,1.719,1.719,0,0,1,1.247,2.052,1.674,1.674,0,0,1-.644.91m-72,50.983h0a1.8,1.8,0,0,1-1.19.3,1.71,1.71,0,0,1-1.574-1.808,1.751,1.751,0,0,1,1.925-1.488,1.673,1.673,0,0,1,1.558,1.78v.017a1.771,1.771,0,0,1-.718,1.2m74.29-64.12h0a1.822,1.822,0,0,1-1.17.334,1.679,1.679,0,0,1-1.607-1.746l0-.048a1.745,1.745,0,0,1,1.858-1.534,1.7,1.7,0,0,1,1.629,1.77v0a1.73,1.73,0,0,1-.718,1.214m-87.879,61.614h0a1.842,1.842,0,0,1-1.538.265,1.66,1.66,0,0,1-1.176-2.032l.007-.025a1.778,1.778,0,0,1,2.185-1.144l-.029.018a1.629,1.629,0,0,1,1.191,1.973c-.007.028-.014.056-.023.084a1.572,1.572,0,0,1-.617.861m87.484-74.876h0a1.865,1.865,0,0,1-.795.322,1.731,1.731,0,0,1-1.954-1.419,1.685,1.685,0,0,1,1.482-1.865l.023,0a1.641,1.641,0,0,1,1.244,2.964M317.742,224.463h0a1.773,1.773,0,0,1-1.9.117,1.647,1.647,0,0,1-.662-2.233c.009-.017.019-.034.029-.051a1.815,1.815,0,0,1,2.379-.623,1.63,1.63,0,0,1,.151,2.789m97.01-82.524h0a1.3,1.3,0,0,1-.486.222,1.7,1.7,0,0,1-2.161-1.011,1.613,1.613,0,0,1,.934-2.081c.037-.014.075-.026.113-.038a1.746,1.746,0,0,1,2.19.995,1.6,1.6,0,0,1-.587,1.913M306.591,216.627h0a1.785,1.785,0,0,1-2.193-.1,1.668,1.668,0,0,1-.112-2.357l.009-.011a1.849,1.849,0,0,1,2.476-.11,1.663,1.663,0,0,1,.12,2.348l-.018.019a2.718,2.718,0,0,1-.286.209m102.267-86.684h0c-.061.036-.108.086-.137.1a1.733,1.733,0,0,1-2.366-.542,1.617,1.617,0,0,1,.458-2.241c.034-.022.068-.043.1-.063a1.74,1.74,0,0,1,2.385.572,1.592,1.592,0,0,1-.443,2.17M297.413,206.766h0a1.819,1.819,0,0,1-2.43-.331,1.617,1.617,0,0,1,.3-2.268c.024-.019.049-.037.074-.054a1.766,1.766,0,0,1,2.431.331,1.63,1.63,0,0,1-.316,2.283l-.053.039M400.49,119.412h0a1.808,1.808,0,0,1-2.326-.2l.03-.019a1.591,1.591,0,0,1-.019-2.25c.034-.034.069-.067.106-.1a1.8,1.8,0,0,1,2.445.08,1.636,1.636,0,0,1-.029,2.314c-.023.024-.048.046-.073.068a1.655,1.655,0,0,1-.134.1M290.154,195.481h0a.7.7,0,0,1-.244.127,1.746,1.746,0,0,1-2.344-.685,1.654,1.654,0,0,1,.686-2.236l.069-.034a1.77,1.77,0,0,1,2.346.732,1.665,1.665,0,0,1-.512,2.1m100.1-84.975h0a1.826,1.826,0,0,1-2.108-.025,1.568,1.568,0,0,1-.4-2.182,1.5,1.5,0,0,1,.109-.14,1.746,1.746,0,0,1,2.433-.281,1.578,1.578,0,0,1,.37,2.2,1.43,1.43,0,0,1-.1.122,1.514,1.514,0,0,1-.309.305M284.624,183.287h0a1.1,1.1,0,0,1-.423.219,1.737,1.737,0,0,1-2.193-.995,1.653,1.653,0,0,1,1.013-2.106l.032-.011a1.684,1.684,0,0,1,2.18.961l.013.033a1.6,1.6,0,0,1-.622,1.9m94.2-80.267h0a1.823,1.823,0,0,1-1.929.088,1.58,1.58,0,0,1-.665-2.132,1.356,1.356,0,0,1,.082-.138,1.758,1.758,0,0,1,2.347-.6,1.61,1.61,0,0,1,.678,2.173c-.023.043-.048.086-.074.127a1.942,1.942,0,0,1-.439.487m-98.082,67.519h0a1.664,1.664,0,0,1-.638.3,1.735,1.735,0,0,1-2.084-1.238,1.672,1.672,0,0,1,1.272-1.994h0a1.729,1.729,0,0,1,2.115,1.22,1.66,1.66,0,0,1-.666,1.714M366.47,97.027h0a1.775,1.775,0,0,1-1.718.184,1.685,1.685,0,0,1-.928-2.195l0,0a1.823,1.823,0,0,1,2.315-.87,1.658,1.658,0,0,1,.9,2.166l0,0a1.431,1.431,0,0,1-.564.716m-88.214,60.445h0a1.99,1.99,0,0,1-.826.34,1.719,1.719,0,0,1-1.941-1.436,1.631,1.631,0,0,1,1.355-1.866q.066-.01.132-.015a1.708,1.708,0,0,1,1.942,1.436,1.671,1.671,0,0,1-.662,1.541m-98.9,62.607h0a1.836,1.836,0,0,1-1.973.091,1.61,1.61,0,0,1-.563-2.207c.017-.029.035-.058.054-.086a1.769,1.769,0,0,1,2.37-.528,1.611,1.611,0,0,1,.588,2.2c-.021.036-.043.07-.066.1l.032-.018a1.9,1.9,0,0,1-.445.44M353.435,92.6h0a1.8,1.8,0,0,1-1.521.264,1.643,1.643,0,0,1-1.212-1.982l.015-.057a1.731,1.731,0,0,1,2.136-1.153,1.648,1.648,0,0,1,.582,2.932M186.811,208.831h0a1.874,1.874,0,0,1-2,.062,1.583,1.583,0,0,1-.576-2.163,1.229,1.229,0,0,1,.069-.108,1.777,1.777,0,0,1,2.419-.516,1.581,1.581,0,0,1,.58,2.159q-.034.06-.075.117a1.069,1.069,0,0,1-.422.454m90.2-64.623h0a2.169,2.169,0,0,1-.949.35,1.748,1.748,0,0,1-1.841-1.585,1.7,1.7,0,0,1,1.663-1.737h.02a1.672,1.672,0,0,1,1.775,1.561v.013a1.554,1.554,0,0,1-.672,1.4m-82.7,53.365h0a1.817,1.817,0,0,1-1.979.076,1.655,1.655,0,0,1-.557-2.272l.021-.033a1.777,1.777,0,0,1,2.417-.516,1.64,1.64,0,0,1,.558,2.252c-.011.019-.023.036-.034.054a1.95,1.95,0,0,1-.426.439M339.849,89.888h0a1.884,1.884,0,0,1-1.27.325,1.676,1.676,0,1,1,.391-3.329l.07.01a1.672,1.672,0,0,1,1.49,1.836l-.005.042a1.616,1.616,0,0,1-.675,1.116M201.92,186.4h0a1.867,1.867,0,0,1-1.992.062,1.619,1.619,0,0,1-.532-2.227c.017-.028.035-.055.054-.082a1.774,1.774,0,0,1,2.388-.5,1.642,1.642,0,0,1,.554,2.254q-.021.034-.045.069a2.2,2.2,0,0,1-.427.424m75.018-55.491h0a1.621,1.621,0,0,1-1.092.326,1.654,1.654,0,0,1-1.663-1.646c0-.02,0-.04,0-.059a1.726,1.726,0,0,1,1.793-1.607,1.633,1.633,0,0,1,1.661,1.6c0,.035,0,.07,0,.105a1.608,1.608,0,0,1-.7,1.278M209.7,175.286h0a1.794,1.794,0,0,1-2.038.049,1.584,1.584,0,0,1-.507-2.183c.024-.039.051-.077.078-.115a1.789,1.789,0,0,1,2.419-.451,1.592,1.592,0,0,1,.5,2.2c-.021.034-.044.067-.067.1a1.152,1.152,0,0,1-.384.4M326.026,89h0a1.6,1.6,0,0,1-1.049.325,1.661,1.661,0,1,1-.165-3.317c.051,0,.1,0,.154,0a1.68,1.68,0,0,1,1.75,1.609v.028A1.633,1.633,0,0,1,326.026,89M217.72,164.359h0a1.77,1.77,0,0,1-2.056.019,1.637,1.637,0,0,1-.424-2.277l.039-.055a1.847,1.847,0,0,1,2.441-.371,1.664,1.664,0,0,1,.393,2.321l-.008.01a3.174,3.174,0,0,1-.385.357m60.258-46.733h0a1.842,1.842,0,0,1-1.217.337,1.667,1.667,0,0,1-1.518-1.8l0-.042a1.7,1.7,0,0,1,1.909-1.458,1.637,1.637,0,0,1,1.551,1.719c0,.036-.005.072-.009.107a1.736,1.736,0,0,1-.723,1.136m-51.947,36.037h0a1.884,1.884,0,0,1-2.108-.024,1.6,1.6,0,0,1-.342-2.238c.022-.029.044-.058.068-.086a1.775,1.775,0,0,1,2.429-.326,1.651,1.651,0,0,1,.34,2.309l-.033.043a1.822,1.822,0,0,1-.354.325m86.136-63.583h0a2.062,2.062,0,0,1-.764.305,1.727,1.727,0,0,1-1.966-1.371,1.67,1.67,0,0,1,1.4-1.9l.066-.009a1.737,1.737,0,0,1,1.986,1.4,1.644,1.644,0,0,1-.725,1.577m-77.4,53.124h0a1.849,1.849,0,0,1-2.159-.037,1.657,1.657,0,0,1-.252-2.331l.023-.028a1.781,1.781,0,0,1,2.441-.2,1.587,1.587,0,0,1,.314,2.222c-.023.03-.047.06-.072.089l-.032.018a.855.855,0,0,1-.262.27m9.151-10.077h0a1.774,1.774,0,0,1-2.194-.1,1.611,1.611,0,0,1-.2-2.269q.034-.042.072-.081a1.812,1.812,0,0,1,2.444-.14,1.641,1.641,0,0,1,.149,2.317l-.046.051a.746.746,0,0,1-.221.216m54.752-39.994h0a3.038,3.038,0,0,1-.483.269A1.753,1.753,0,0,1,296,92.318a1.632,1.632,0,0,1,1.052-2.054c.025-.008.05-.016.076-.022A1.719,1.719,0,0,1,299.3,91.3a1.6,1.6,0,0,1-.627,1.837m-45.146,30.356h0a1.8,1.8,0,0,1-2.263-.171,1.593,1.593,0,0,1-.051-2.252c.025-.027.052-.053.079-.078a1.777,1.777,0,0,1,2.451-.015,1.665,1.665,0,0,1,0,2.355l-.022.022c-.059.035-.132.1-.191.139m26.611-19.04h0a1.792,1.792,0,0,1-1.384.286,1.618,1.618,0,0,1-1.377-1.826q.007-.054.018-.108a1.725,1.725,0,0,1,2.014-1.32,1.65,1.65,0,0,1,1.392,1.872c0,.025-.008.05-.013.075a1.586,1.586,0,0,1-.652,1.02m-16.325,9.871h0l.029-.018a1.79,1.79,0,0,1-2.463-.142,1.6,1.6,0,0,1,.054-2.264c.026-.025.054-.05.083-.074l.029-.018a1.77,1.77,0,0,1,2.432.176,1.579,1.579,0,0,1-.041,2.232c-.04.038-.081.073-.124.107M285.9,98.352h0c-.06.035-.1.085-.163.121a1.809,1.809,0,0,1-2.388-.619,1.7,1.7,0,0,1,.656-2.294,1.834,1.834,0,0,1,2.388.619,1.641,1.641,0,0,1-.493,2.173m-11.416,7.582h0a1.77,1.77,0,0,1-2.412-.3,1.582,1.582,0,0,1,.183-2.228,1.629,1.629,0,0,1,.141-.107,1.8,1.8,0,0,1,2.427.286,1.655,1.655,0,0,1-.3,2.321l-.041.031m8.83-14.46h0a1.716,1.716,0,0,1-2.7-1.745,1.745,1.745,0,0,1,2.137-1.153,1.616,1.616,0,0,1,1.253,1.911c-.007.037-.016.073-.026.109a1.567,1.567,0,0,1-.664.88M287.634,78.8h0a1.741,1.741,0,0,1-1.651.226,1.631,1.631,0,0,1-1.051-2.052c.007-.021.014-.042.022-.062a1.73,1.73,0,0,1,2.23-.973,1.6,1.6,0,0,1,1.068,2,1.159,1.159,0,0,1-.04.117,1.721,1.721,0,0,1-.578.749m5.4-12.283h0a1.747,1.747,0,0,1-1.765.186,1.633,1.633,0,0,1-.859-2.144c.013-.032.028-.063.044-.094a1.73,1.73,0,0,1,2.3-.774,1.636,1.636,0,0,1,.858,2.148q-.02.045-.042.09a1.6,1.6,0,0,1-.54.589m6.6-11.755h0a1.783,1.783,0,0,1-1.959.106,1.61,1.61,0,0,1-.612-2.192c.018-.033.038-.065.059-.1A1.774,1.774,0,0,1,299.481,52a1.617,1.617,0,0,1,.63,2.2c-.014.025-.029.05-.044.074a1.187,1.187,0,0,1-.439.487M364.274,7.8h0a1.775,1.775,0,0,1-.659.268A1.727,1.727,0,0,1,361.56,6.8a1.7,1.7,0,0,1,1.326-1.98,1.74,1.74,0,0,1,2.054,1.26,1.673,1.673,0,0,1-.666,1.714M307.439,43.741h0a1.746,1.746,0,0,1-2.075-.012,1.681,1.681,0,0,1-.341-2.335,1.769,1.769,0,0,1,2.431-.328,1.6,1.6,0,0,1,.423,2.224c-.026.038-.054.075-.083.111a1.488,1.488,0,0,1-.355.34M350.949,11.6h0a.941.941,0,0,1-.412.2,1.745,1.745,0,0,1-2.234-.928,1.643,1.643,0,0,1,.927-2.132c.027-.011.054-.021.082-.03a1.782,1.782,0,0,1,2.254.958,1.647,1.647,0,0,1-.617,1.931M316.527,33.652h0a1.806,1.806,0,0,1-2.227-.145,1.63,1.63,0,0,1-.118-2.3c.021-.023.043-.046.065-.068a1.833,1.833,0,0,1,2.481-.032,1.639,1.639,0,0,1,.049,2.317l-.041.041a1.247,1.247,0,0,1-.209.188M338.4,17.286h0c-.06.035-.1.085-.163.121a1.783,1.783,0,0,1-2.388-.618,1.644,1.644,0,0,1,.627-2.239l.05-.026a1.765,1.765,0,0,1,2.348.59,1.618,1.618,0,0,1-.477,2.173m-11.522,7.439h0a1.813,1.813,0,0,1-2.413-.3,1.639,1.639,0,0,1,.27-2.3l.042-.032a1.79,1.79,0,0,1,2.44.286,1.628,1.628,0,0,1-.267,2.286l-.057.043Z" fill="#141c36"/><path d="M91.917,322.943h0a1.79,1.79,0,0,1-2.411-.3,1.654,1.654,0,0,1,.3-2.32l.042-.032a1.79,1.79,0,0,1,2.43.331,1.6,1.6,0,0,1-.264,2.248c-.024.02-.05.039-.075.057Z" fill="#141c36"/><path d="M80.549,330.6h0a.28.28,0,0,0-.1.086,1.789,1.789,0,0,1-2.378-.494,1.618,1.618,0,0,1,.41-2.25c.034-.024.069-.046.1-.066a1.794,1.794,0,0,1,2.395.524,1.569,1.569,0,0,1-.4,2.183l-.025.017" fill="#141c36"/><path d="M102.68,314.514h0a1.834,1.834,0,0,1-2.343-.229,1.644,1.644,0,0,1,.127-2.323l.037-.032a1.8,1.8,0,0,1,2.464.142,1.606,1.606,0,0,1-.07,2.271,1.25,1.25,0,0,1-.095.083c-.03.018-.06.051-.12.087" fill="#141c36"/><path d="M68.573,337.412h0a.556.556,0,0,1-.213.11A1.776,1.776,0,0,1,66,336.885a1.653,1.653,0,0,1,.642-2.249c.02-.012.041-.023.062-.033a1.774,1.774,0,0,1,2.345.685,1.614,1.614,0,0,1-.48,2.125" fill="#141c36"/><path d="M112.863,305.433h0a1.793,1.793,0,0,1-2.262-.171,1.639,1.639,0,0,1-.048-2.316l.041-.04a1.819,1.819,0,0,1,2.486.012,1.634,1.634,0,0,1,.045,2.31c-.021.022-.044.045-.067.066a1.756,1.756,0,0,0-.191.139" fill="#141c36"/><path d="M56.055,343.244h0a2.414,2.414,0,0,1-.333.2,1.786,1.786,0,0,1-2.293-.893,1.644,1.644,0,0,1,.864-2.159l.019-.009a1.785,1.785,0,0,1,2.293.843,1.648,1.648,0,0,1-.551,2.021" fill="#141c36"/><path d="M122.488,295.794h0a1.85,1.85,0,0,1-2.192-.082,1.634,1.634,0,0,1-.174-2.3l.041-.045a1.79,1.79,0,0,1,2.443-.14,1.609,1.609,0,0,1,.206,2.266c-.023.028-.048.055-.073.082a2.322,2.322,0,0,1-.252.223" fill="#141c36"/><path d="M131.577,285.7h0a1.8,1.8,0,0,1-2.127-.051,1.572,1.572,0,0,1-.319-2.2c.03-.04.061-.078.094-.114a1.814,1.814,0,0,1,2.468-.237,1.615,1.615,0,0,1,.26,2.268c-.016.02-.033.04-.05.059a1.746,1.746,0,0,1-.326.275" fill="#141c36"/><path d="M43.087,348.039h0a1.611,1.611,0,0,1-.453.252l-.03.016a1.768,1.768,0,0,1-2.2-1.04,1.649,1.649,0,0,1,1.028-2.093c.032-.011.065-.021.1-.03a1.762,1.762,0,0,1,2.2,1.041,1.643,1.643,0,0,1-.64,1.851" fill="#141c36"/><path d="M140.263,275.235h0a1.771,1.771,0,0,1-2.075,0,1.65,1.65,0,0,1-.355-2.308l.018-.024.018.031a1.751,1.751,0,0,1,2.43-.328,1.681,1.681,0,0,1,.336,2.335,3,3,0,0,1-.372.294" fill="#141c36"/><path d="M148.554,264.527h0a1.8,1.8,0,0,1-2.041.049,1.618,1.618,0,0,1-.451-2.243c.021-.031.043-.062.067-.093a1.746,1.746,0,0,1,2.4-.384,1.573,1.573,0,0,1,.5,2.168,1.486,1.486,0,0,1-.1.147,1.165,1.165,0,0,1-.368.355" fill="#141c36"/><path d="M156.547,253.6h0a1.752,1.752,0,0,1-2.011.03,1.569,1.569,0,0,1-.519-2.158,1.626,1.626,0,0,1,.1-.139,1.766,1.766,0,0,1,2.387-.435,1.57,1.57,0,0,1,.525,2.157,1.52,1.52,0,0,1-.1.141,1.324,1.324,0,0,1-.381.4" fill="#141c36"/><path d="M164.279,242.54h0a1.871,1.871,0,0,1-1.993.062,1.617,1.617,0,0,1-.533-2.224c.018-.03.037-.058.056-.086a1.734,1.734,0,0,1,2.4-.469,1.6,1.6,0,0,1,.554,2.194c-.015.026-.031.052-.048.077a1.652,1.652,0,0,1-.441.441" fill="#141c36"/><path d="M171.86,231.345a1.849,1.849,0,0,1-1.975.092,1.671,1.671,0,0,1-.528-2.3l0-.007a1.811,1.811,0,0,1,2.418-.513" fill="#141c36"/></g></svg>