<?xml version="1.0" encoding="utf-8"?>
<!-- Generator: Adobe Illustrator 24.1.0, SVG Export Plug-In . SVG Version: 6.00 Build 0)  -->
<svg version="1.1" id="Layer_1" xmlns="http://www.w3.org/2000/svg" xmlns:xlink="http://www.w3.org/1999/xlink" x="0px" y="0px"
	 viewBox="0 0 117.8 117.8" style="enable-background:new 0 0 117.8 117.8;" xml:space="preserve">
<style type="text/css">
	.st0{fill:#FFFFFF;}
</style>
<path class="st0" d="M58.9,0C26.4,0,0,26.4,0,58.9c0,32.5,26.4,58.9,58.9,58.9s58.9-26.4,58.9-58.9C117.8,26.4,91.4,0,58.9,0z
	 M74.2,40.4c0,0.6-0.5,1.2-1.2,1.2h-4.9c-3.4,0-4,1.3-4,4v5.5h8.6c0.3,0,0.6,0.1,0.8,0.3c0.2,0.2,0.3,0.5,0.3,0.8v9.3
	c0,0.6-0.5,1.2-1.2,1.2h-8.6v23.5c0,0.6-0.5,1.2-1.1,1.2h-9.7c-0.6,0-1.2-0.5-1.2-1.2V62.5h-7.4c-0.6,0-1.2-0.5-1.2-1.2v-9.3
	c0-0.6,0.5-1.2,1.2-1.2h7.4v-6.4c0-8.5,5.3-14,13.6-14l7.3,0c0.6,0,1.2,0.5,1.2,1.2V40.4z"/>
</svg>
