<?xml version="1.0" encoding="utf-8"?>
<!-- Generator: Adobe Illustrator 24.0.3, SVG Export Plug-In . SVG Version: 6.00 Build 0)  -->
<svg version="1.1" id="Layer_1" xmlns="http://www.w3.org/2000/svg" xmlns:xlink="http://www.w3.org/1999/xlink" x="0px" y="0px"
	 viewBox="0 0 328.41 84.25" style="enable-background:new 0 0 328.41 84.25;" xml:space="preserve">
<style type="text/css">
	.st0{fill:#FFFFFF;}
	.st1{fill:#B5B7BA;}
</style>
<g>
	<path class="st0" d="M198.9,38.7c-2.91-2.71-6.88-4.37-11.51-4.37c-8.74,0-15.42,6.88-15.42,15.95c0,8.54,6.68,15.68,15.42,15.68
		c4.63,0,8.6-1.65,11.51-4.37v5.36h-0.07c0,6.75-4.3,10.92-10.65,10.92c-5.56,0-9.53-2.91-10.46-7.21h-4.63
		c1.06,6.68,7.08,11.38,15.09,11.38c9.07,0,15.22-5.89,15.22-15.09V35.39h-4.5V38.7z M198.9,56.24c-2.65,3.9-6.68,5.76-10.92,5.76
		c-6.68,0-11.45-5.56-11.45-11.71c0-6.68,4.76-11.98,11.45-11.98c4.24,0,8.27,1.85,10.92,5.76V56.24z"/>
	<rect x="215.91" y="35.39" class="st0" width="4.5" height="30.57"/>
	<path class="st0" d="M218.16,20.77c-1.72,0-3.11,1.32-3.11,3.04c0,1.79,1.39,3.04,3.11,3.04c1.79,0,3.18-1.26,3.18-3.04
		C221.34,22.09,219.95,20.77,218.16,20.77z"/>
	<path class="st0" d="M276.2,62c-1.65,0.46-3.57,0.79-5.16,0.79c-4.63,0-6.82-2.25-6.82-7.81V39.3h11.58v-3.9h-11.58V24.08h-4.5
		v11.32h-6.75h-1.39h-10.92v-8.01c0-4.43,2.85-7.35,7.15-7.35c1.26,0,3.18,0.26,4.83,0.66l0.73-3.9c-2.25-0.66-4.57-0.93-6.35-0.93
		c-6.49,0-10.85,4.57-10.85,11.51v8.01h-8.93v3.9h8.93v26.67h4.5V39.3h10.92h1.39h6.75v15.68c0,7.94,3.57,11.98,10.59,11.98
		c2.05,0,3.84-0.26,6.62-1.06L276.2,62z"/>
</g>
<path class="st1" d="M326.86,41.58c0.25-0.38,0.31-0.86,0.16-1.28l-8.34-23.5l5.67-8.62c0.18-0.27,0.3-0.56,0.37-0.86l1.06-4.75
	c0.1-0.46-0.1-0.85-0.42-1.08l0,0c0,0-0.01,0-0.01,0c0,0,0,0-0.01-0.01l0,0c-0.34-0.2-0.78-0.23-1.16,0.04l-3.96,2.84
	c-0.25,0.18-0.48,0.41-0.65,0.68l-5.72,8.59l-24.89,1.51c-0.45,0.03-0.87,0.27-1.12,0.65l-1.1,1.65c-0.58,0.87-0.13,2.08,0.88,2.33
	l18.93,4.81l-4.05,6.08l-8.74,1.62c-0.38,0.07-0.72,0.3-0.94,0.63l-0.59,0.89c-0.59,0.88-0.11,2.1,0.9,2.34l7.98,1.89l0.02,0.03
	l0,0.01l0.01,0l0,0.01l0-0.01l0.03,0.01l4.85,6.61c0.62,0.84,1.92,0.8,2.51-0.08l0.59-0.89c0.22-0.33,0.29-0.73,0.21-1.11
	l-1.92-8.68l4.02-6.11l11.83,15.55c0.63,0.83,1.92,0.77,2.49-0.1L326.86,41.58z"/>
<g>
	<g>
		<path class="st1" d="M11.45,27.57c0-6.95,4.37-11.51,10.85-11.51c1.79,0,4.1,0.26,6.35,0.93l-0.73,3.9
			c-1.65-0.4-3.57-0.66-4.83-0.66c-4.3,0-7.15,2.91-7.15,7.35v8.01h10.99v3.9H15.95v26.67h-4.5V39.48H2.52v-3.9h8.93V27.57z
			 M38.65,66.15h-4.5V19.16h4.5V66.15z"/>
		<path class="st1" d="M49.97,24c0-1.72,1.39-3.04,3.11-3.04c1.79,0,3.18,1.32,3.18,3.04c0,1.79-1.39,3.04-3.18,3.04
			C51.36,27.04,49.97,25.78,49.97,24z M55.33,66.15h-4.5V35.58h4.5V66.15z"/>
		<path class="st1" d="M97.02,67.14c0,9.2-6.15,15.09-15.22,15.09c-8.01,0-14.03-4.7-15.09-11.38h4.63c0.93,4.3,4.9,7.21,10.46,7.21
			c6.35,0,10.65-4.17,10.65-10.92h0.07v-5.36c-2.91,2.71-6.88,4.37-11.51,4.37c-8.74,0-15.42-7.15-15.42-15.68
			c0-9.07,6.68-15.95,15.42-15.95c4.63,0,8.6,1.65,11.51,4.37v-3.31h4.5V67.14z M92.52,56.42V44.25c-2.65-3.9-6.68-5.76-10.92-5.76
			c-6.68,0-11.45,5.29-11.45,11.98c0,6.15,4.77,11.71,11.45,11.71C85.84,62.18,89.88,60.33,92.52,56.42z"/>
		<path class="st1" d="M137.4,48.55v17.6h-4.5v-17.4c0-6.35-3.77-9.99-9.33-9.99c-3.9,0-7.88,2.05-10.52,5.69v21.71h-4.5V19.16h4.5
			v20.05c2.85-2.91,6.82-4.63,11.32-4.63C132.03,34.58,137.4,39.94,137.4,48.55z"/>
		<path class="st1" d="M167.05,66.08c-2.78,0.79-4.57,1.06-6.62,1.06c-7.01,0-10.59-4.04-10.59-11.98V39.48h-8.14v-3.9h8.14V24.26
			h4.5v11.32h11.58v3.9h-11.58v15.68c0,5.56,2.18,7.81,6.82,7.81c1.59,0,3.51-0.33,5.16-0.79L167.05,66.08z"/>
	</g>
</g>
</svg>
