<svg xmlns="http://www.w3.org/2000/svg" width="34.03" height="33.152" viewBox="0 0 34.03 33.152">
  <g id="Group_756" data-name="Group 756" transform="translate(-24.041 -23.956)">
    <g id="gift" transform="translate(24.041 41.715)">
      <path id="Path_1467" data-name="Path 1467" d="M94,283.2a2.481,2.481,0,0,0-3.485-.222l-3.989,3.477c0,.051,0,.1,0,.153a4.508,4.508,0,0,1-4.5,4.5H76.662a1,1,0,0,1,0-2h5.365a2.5,2.5,0,1,0,0-5l-5.224,0a8.223,8.223,0,0,0-11.476-.856l-.469.4,4.921,11.482H82.487a5,5,0,0,0,3.343-1.281l7.972-7.158A2.481,2.481,0,0,0,94,283.2Z" transform="translate(-60.596 -281.315)" fill="#fff"/>
      <path id="Path_1470" data-name="Path 1470" d="M1.606,331.833a1,1,0,0,0-.526,1.314l4,9.341a1,1,0,0,0,1.314.526l1.9-.813L3.5,331.02Z" transform="translate(-0.999 -327.704)" fill="#fff"/>
    </g>
    <g id="Group_378" data-name="Group 378" transform="translate(32.388 23.956)">
      <g id="Group_43" data-name="Group 43" transform="translate(0 0)">
        <g id="Group_39" data-name="Group 39">
          <path id="Path_33" data-name="Path 33" d="M103.024,82.5a2.2,2.2,0,0,0-3.2,0,2.545,2.545,0,0,0,0,3.421,4.243,4.243,0,0,0,.609.522l-3.451,0A1.129,1.129,0,0,0,95.9,87.6l0,1.744a.57.57,0,0,0,.547.583h2.677l-.01-.01,2.977-.221a1.617,1.617,0,0,0,1.371-.988l1.132-2.679A7.244,7.244,0,0,0,103.024,82.5Zm.435,3.9s-.043.037-.2.037A5.222,5.222,0,0,1,100.6,85.1a1.332,1.332,0,0,1,0-1.783,1.136,1.136,0,0,1,1.65,0C102.986,84.1,103.716,86.118,103.459,86.4Zm8.785.039H108.8a4.462,4.462,0,0,0,.607-.521,2.547,2.547,0,0,0,0-3.418,2.2,2.2,0,0,0-3.2,0,7.243,7.243,0,0,0-1.561,3.529l1.1,2.69a1.615,1.615,0,0,0,1.362,1l2.45.207,3.231,0a.568.568,0,0,0,.546-.582V87.6A1.131,1.131,0,0,0,112.245,86.439Zm-6.274,0c-.157,0-.2-.036-.2-.036-.255-.28.474-2.295,1.211-3.083a1.108,1.108,0,0,1,1.65,0,1.327,1.327,0,0,1,0,1.78A5.2,5.2,0,0,1,105.971,86.436Z" transform="translate(-95.893 -81.808)" fill="#fff"/>
        </g>
        <path id="Path_34" data-name="Path 34" d="M154.589,109.885l.028-.069.03.072" transform="translate(-145.895 -105.667)" fill="#fff"/>
      </g>
      <g id="Group_45" data-name="Group 45" transform="translate(9.822 10.144)">
        <path id="Path_35" data-name="Path 35" d="M162.2,151.933v6.7h5.59a1.158,1.158,0,0,0,1.118-1.193v-7.156h-5.062A1.646,1.646,0,0,0,162.2,151.933Z" transform="translate(-162.2 -150.287)" fill="#fff"/>
      </g>
      <g id="Group_48" data-name="Group 48" transform="translate(0.877 10.144)">
        <path id="Path_36" data-name="Path 36" d="M101.816,150.287v5.447c0,.658,1.82-.443,3.5.182a7.467,7.467,0,0,1,3.212,2.316c.161.35,0-6.3,0-6.3a1.646,1.646,0,0,0-1.646-1.646Z" transform="translate(-101.816 -150.287)" fill="#fff"/>
      </g>
    </g>
  </g>
</svg>
