<svg xmlns="http://www.w3.org/2000/svg" width="19.807" height="19.807" viewBox="0 0 19.807 19.807">
  <path id="planet-earth" d="M9.9,0a9.9,9.9,0,1,0,9.9,9.9A9.915,9.915,0,0,0,9.9,0ZM17.73,13.171a8.521,8.521,0,0,1-5.391,4.857q.066-.122.127-.246a2.791,2.791,0,0,1,.8-1.021c.283-.228.838-.582.747-1.028-.065-.322-.433-.454-.711-.533a6.744,6.744,0,0,0-1.368-.189,6.684,6.684,0,0,1-1.188-.112c-.576-.147-.706-.645-.742-1.171a3.242,3.242,0,0,0-.255-1.37,1.854,1.854,0,0,0-1.541-.751c-.477-.044-.953-.021-1.426-.1a6.62,6.62,0,0,0-1.356-.218c-.607.023-.879.435-1.138.91a12.294,12.294,0,0,1-1.409,2.447,8.427,8.427,0,0,1-1.435-4.175,1.076,1.076,0,0,0,.2-.077c.264-.131.449-.367.736-.461a2.378,2.378,0,0,1,.907.017,3.621,3.621,0,0,0,.839.018,1.076,1.076,0,0,0,.939-1,7.179,7.179,0,0,0,.021-.965c.015-.5.345-.683.8-.726.858-.081,2.86.147,2.9-1.174C8.8,5.544,8.13,5.253,7.692,5.1a26.312,26.312,0,0,0-2.657-.395,2.455,2.455,0,0,1-1.183-.74,8.476,8.476,0,0,1,7.536-2.415,3.768,3.768,0,0,0-.726.206c-1.249.5-1.286,1.92-.74,2.984A5.39,5.39,0,0,0,11.38,6.415,11.5,11.5,0,0,0,13.154,7.46c.815.448.717,1.619.923,2.408a2.009,2.009,0,0,0,1.25,1.457c.4.139.866.031,1.214.308.3.238.37.724.541,1.051A.8.8,0,0,0,17.73,13.171Z" fill="#a5a9ac"/>
</svg>
