<?xml version="1.0" encoding="utf-8"?>
<!-- Generator: Adobe Illustrator 24.0.3, SVG Export Plug-In . SVG Version: 6.00 Build 0)  -->
<svg version="1.1" id="Layer_1" xmlns="http://www.w3.org/2000/svg" xmlns:xlink="http://www.w3.org/1999/xlink" x="0px" y="0px"
	 viewBox="0 0 314.91 86" style="enable-background:new 0 0 314.91 86;" xml:space="preserve">
<style type="text/css">
	.st0{fill:#FFFFFF;}
	.st1{fill:#DBA000;}
</style>
<g>
	<path class="st0" d="M185.21,41.35c-2.91-2.71-6.88-4.37-11.51-4.37c-8.74,0-15.42,6.88-15.42,15.95c0,8.54,6.68,15.68,15.42,15.68
		c4.63,0,8.6-1.65,11.51-4.37v5.36h-0.07c0,6.75-4.3,10.92-10.65,10.92c-5.56,0-9.53-2.91-10.46-7.21h-4.63
		c1.06,6.68,7.08,11.38,15.09,11.38c9.07,0,15.22-5.89,15.22-15.09V38.04h-4.5V41.35z M185.21,58.89c-2.65,3.9-6.68,5.76-10.92,5.76
		c-6.68,0-11.45-5.56-11.45-11.71c0-6.68,4.76-11.98,11.45-11.98c4.24,0,8.27,1.85,10.92,5.76V58.89z"/>
	<rect x="202.22" y="38.04" class="st0" width="4.5" height="30.57"/>
	<path class="st0" d="M204.47,23.42c-1.72,0-3.11,1.32-3.11,3.04c0,1.79,1.39,3.04,3.11,3.04c1.79,0,3.18-1.26,3.18-3.04
		C207.65,24.74,206.26,23.42,204.47,23.42z"/>
	<path class="st0" d="M262.51,64.65c-1.65,0.46-3.57,0.79-5.16,0.79c-4.63,0-6.82-2.25-6.82-7.81V41.95h11.58v-3.9h-11.58V26.73
		h-4.5v11.32h-6.75h-1.39h-10.92v-8.01c0-4.43,2.85-7.35,7.15-7.35c1.26,0,3.18,0.26,4.83,0.66l0.73-3.9
		c-2.25-0.66-4.57-0.93-6.35-0.93c-6.49,0-10.85,4.57-10.85,11.51v8.01h-8.93v3.9h8.93v26.67h4.5V41.95h10.92h1.39h6.75v15.68
		c0,7.94,3.57,11.98,10.59,11.98c2.05,0,3.84-0.26,6.62-1.06L262.51,64.65z"/>
</g>
<path class="st1" d="M311.17,19.53c0.02-0.03,0.04-0.06,0.07-0.09c0.02-0.03,0.04-0.06,0.06-0.1l0.54-0.82l-0.04-0.03
	c2.81-5.25,1.21-11.86-3.86-15.21c-5.05-3.34-12.21-2.37-15.56,2.33l0,0l-2,3.03l6.99,1.15c0.06-0.11,0.12-0.21,0.19-0.32
	c1.47-2.22,4.45-2.83,6.67-1.36c2.22,1.47,2.83,4.45,1.36,6.67c-1.47,2.22-4.45,2.83-6.67,1.36c-0.08-0.05-0.16-0.11-0.23-0.16
	l-11.87-1.95l-13.29,20.1c-0.63,0.95-0.36,2.23,0.58,2.86l16.04,10.61c0.95,0.63,2.23,0.36,2.86-0.58L311.17,19.53z"/>
<g>
	<g>
		<g>
			<path class="st1" d="M30.95,51.01v17.55h-4.49V51.21c0-6.33-3.76-9.96-9.3-9.96c-3.89,0-7.85,2.05-10.49,5.68v21.64H2.18V21.71
				h4.49v19.99c2.84-2.9,6.8-4.62,11.28-4.62C25.6,37.09,30.95,42.43,30.95,51.01z"/>
			<path class="st1" d="M71.39,53.32c0,9.17-7.06,16.23-16.17,16.23C46.06,69.55,39,62.49,39,53.32c0-9.04,7.06-16.03,16.23-16.03
				C64.33,37.29,71.39,44.28,71.39,53.32z M66.91,53.32c0-6.53-5.01-11.88-11.68-11.88c-6.66,0-11.68,5.35-11.68,11.88
				c0,6.73,5.01,12.14,11.68,12.14C61.89,65.46,66.91,60.05,66.91,53.32z"/>
			<path class="st1" d="M100.63,68.5c-2.77,0.79-4.55,1.06-6.6,1.06c-6.99,0-10.56-4.03-10.56-11.94V41.97h-8.12v-3.89h8.12V26.79
				h4.49v11.28H99.5v3.89H87.96v15.64c0,5.54,2.18,7.79,6.8,7.79c1.58,0,3.5-0.33,5.15-0.79L100.63,68.5z"/>
			<path class="st1" d="M135.6,55.1l-0.26-0.13v0.13h-25.8c0.66,5.81,4.82,10.43,11.42,10.43c4.22,0,7.46-1.78,8.84-4.68h4.88
				c-1.78,5.21-7.13,8.58-13.86,8.58c-9.3,0-15.84-7.06-15.84-16.1c0-8.97,6.53-16.03,15.84-16.03c8.71,0,14.78,6.73,14.85,15.9
				C135.66,53.85,135.66,54.51,135.6,55.1z M109.53,51.61h21.58c-0.53-6.14-4.42-10.43-10.43-10.43
				C114.29,41.18,110.19,45.86,109.53,51.61z"/>
			<path class="st1" d="M149.32,68.56h-4.49V21.71h4.49V68.56z"/>
		</g>
	</g>
</g>
</svg>
