<svg xmlns="http://www.w3.org/2000/svg" width="31.749" height="30.93" viewBox="0 0 31.749 30.93"><g transform="translate(-14.966 -13.954)"><g transform="translate(14.966 30.523)"><path d="M92.046,283.071a2.315,2.315,0,0,0-3.251-.207l-3.722,3.244c0,.047,0,.1,0,.143a4.206,4.206,0,0,1-4.2,4.2H75.871a.934.934,0,1,1,0-1.868h5.006a2.333,2.333,0,1,0,0-4.665l-4.874,0a7.672,7.672,0,0,0-10.707-.8l-.437.369L69.448,294.2H81.305a4.662,4.662,0,0,0,3.119-1.195l7.438-6.679A2.315,2.315,0,0,0,92.046,283.071Z" transform="translate(-60.882 -281.315)" fill="#fff"/><path d="M1.565,331.779A.934.934,0,0,0,1.075,333L4.81,341.72a.933.933,0,0,0,1.226.49l1.771-.759L3.336,331.02Z" transform="translate(-0.999 -327.926)" fill="#fff"/></g><g transform="translate(22.754 13.954)"><g transform="translate(0 0)"><path d="M102.546,82.45a2.055,2.055,0,0,0-2.983,0,2.374,2.374,0,0,0,0,3.191,3.958,3.958,0,0,0,.568.487l-3.219,0A1.053,1.053,0,0,0,95.9,87.209l0,1.627a.531.531,0,0,0,.51.544h2.5l-.009-.01,2.777-.207a1.509,1.509,0,0,0,1.279-.922l1.056-2.5A6.758,6.758,0,0,0,102.546,82.45Zm.406,3.642s-.04.035-.188.035a4.872,4.872,0,0,1-2.481-1.249,1.243,1.243,0,0,1,0-1.664,1.06,1.06,0,0,1,1.539,0C102.511,83.95,103.192,85.829,102.952,86.092Zm8.2.036h-3.218a4.161,4.161,0,0,0,.566-.486,2.377,2.377,0,0,0,0-3.189,2.056,2.056,0,0,0-2.984,0,6.757,6.757,0,0,0-1.457,3.293l1.026,2.51a1.507,1.507,0,0,0,1.271.933l2.286.193,3.014,0a.53.53,0,0,0,.51-.543V87.215A1.055,1.055,0,0,0,111.149,86.128Zm-5.853,0c-.146,0-.187-.034-.187-.034-.238-.261.442-2.141,1.13-2.876a1.034,1.034,0,0,1,1.539,0,1.238,1.238,0,0,1,0,1.661A4.851,4.851,0,0,1,105.3,86.126Z" transform="translate(-95.893 -81.808)" fill="#fff"/><path d="M154.589,109.88l.026-.065.028.067" transform="translate(-146.478 -105.945)" fill="#fff"/></g><g transform="translate(9.164 9.464)"><path d="M162.2,151.823v6.253h5.216a1.081,1.081,0,0,0,1.043-1.113v-6.676h-4.723A1.536,1.536,0,0,0,162.2,151.823Z" transform="translate(-162.2 -150.287)" fill="#fff"/></g><g transform="translate(0.819 9.464)"><path d="M101.816,150.287v5.082c0,.614,1.7-.413,3.262.169a6.967,6.967,0,0,1,3,2.161c.15.327,0-5.876,0-5.876a1.536,1.536,0,0,0-1.536-1.536Z" transform="translate(-101.816 -150.287)" fill="#fff"/></g></g></g></svg>