<?xml version="1.0" encoding="utf-8"?>
<!-- Generator: Adobe Illustrator 24.1.0, SVG Export Plug-In . SVG Version: 6.00 Build 0)  -->
<svg version="1.1" id="Layer_1" xmlns="http://www.w3.org/2000/svg" xmlns:xlink="http://www.w3.org/1999/xlink" x="0px" y="0px"
	 viewBox="0 0 117.8 117.8" style="enable-background:new 0 0 117.8 117.8;" xml:space="preserve">
<style type="text/css">
	.st0{fill:#FFFFFF;}
</style>
<g>
	<path class="st0" d="M67.8,58.9c0,4.9-4,8.9-8.9,8.9c-4.9,0-8.9-4-8.9-8.9c0-4.9,4-8.9,8.9-8.9C63.8,50,67.8,54,67.8,58.9z"/>
	<path class="st0" d="M80.7,48.1c-0.1-2.6-0.5-4-0.9-5c-0.4-1.2-1.1-2.2-2-3.1c-0.9-0.9-1.9-1.6-3.1-2c-0.9-0.4-2.4-0.8-5-0.9
		C66.9,37,66.1,37,58.9,37c-7.1,0-8,0-10.8,0.2c-2.6,0.1-4,0.6-5,0.9c-1.2,0.4-2.2,1.1-3.1,2c-0.9,0.9-1.6,1.9-2,3.1
		c-0.4,0.9-0.8,2.3-0.9,5C37,50.9,37,51.8,37,58.9s0,8,0.2,10.8c0.1,2.6,0.6,4,0.9,5c0.4,1.2,1.1,2.2,2,3.1c0.8,0.9,1.9,1.6,3.1,2
		c0.9,0.4,2.3,0.8,5,0.9c2.8,0.1,3.7,0.2,10.8,0.2c7.1,0,8,0,10.8-0.2c2.6-0.1,4-0.6,5-0.9c2.3-0.9,4.2-2.8,5.1-5.1
		c0.4-0.9,0.8-2.3,0.9-5c0.1-2.8,0.2-3.7,0.2-10.8S80.8,50.9,80.7,48.1z M58.9,72.6c-7.6,0-13.7-6.2-13.7-13.7
		c0-7.6,6.2-13.8,13.7-13.8c7.6,0,13.7,6.2,13.7,13.8C72.7,66.5,66.5,72.6,58.9,72.6z M73.2,47.8c-1.8,0-3.2-1.4-3.2-3.2
		s1.4-3.2,3.2-3.2c1.8,0,3.2,1.4,3.2,3.2S75,47.8,73.2,47.8z"/>
	<path class="st0" d="M58.9,0C26.4,0,0,26.4,0,58.9c0,32.5,26.4,58.9,58.9,58.9c32.5,0,58.9-26.4,58.9-58.9
		C117.8,26.4,91.4,0,58.9,0z M85.5,69.9c-0.1,2.9-0.6,4.8-1.2,6.5c-1.4,3.6-4.2,6.4-7.8,7.8c-1.7,0.7-3.6,1.1-6.5,1.2
		c-2.9,0.1-3.8,0.2-11,0.2c-7.3,0-8.2,0-11-0.2c-2.8-0.1-4.8-0.6-6.5-1.2c-1.8-0.7-3.4-1.7-4.7-3.1c-1.4-1.3-2.4-2.9-3.1-4.8
		c-0.6-1.7-1.1-3.6-1.2-6.5c-0.1-2.8-0.2-3.8-0.2-11c0-7.3,0-8.2,0.2-11c0.1-2.8,0.6-4.8,1.2-6.5c0.7-1.8,1.7-3.4,3.1-4.7
		c1.3-1.4,2.9-2.4,4.7-3.1c1.7-0.7,3.6-1.1,6.5-1.2c2.9-0.1,3.8-0.2,11-0.2c7.3,0,8.2,0,11,0.2c2.8,0.1,4.8,0.6,6.5,1.2
		c1.8,0.7,3.4,1.7,4.7,3.1c1.4,1.3,2.4,3,3.1,4.8c0.7,1.7,1.1,3.6,1.2,6.5c0.1,2.8,0.1,3.8,0.1,11C85.6,66.1,85.6,67.1,85.5,69.9z"
		/>
</g>
</svg>
