<?xml version="1.0" encoding="utf-8"?>
<!-- Generator: Adobe Illustrator 24.1.0, SVG Export Plug-In . SVG Version: 6.00 Build 0)  -->
<svg version="1.1" id="Layer_1" xmlns="http://www.w3.org/2000/svg" xmlns:xlink="http://www.w3.org/1999/xlink" x="0px" y="0px"
	 viewBox="0 0 117.8 117.8" style="enable-background:new 0 0 117.8 117.8;" xml:space="preserve">
<style type="text/css">
	.st0{fill:#FFFFFF;}
</style>
<path class="st0" d="M58.9,0C26.4,0,0,26.4,0,58.9c0,32.5,26.4,58.9,58.9,58.9c32.5,0,58.9-26.4,58.9-58.9C117.8,26.4,91.4,0,58.9,0
	z M45.4,80.7H34.5V45.6h10.9V80.7z M39.9,40.8c-3.5,0-6.3-2.9-6.3-6.4c0-3.5,2.8-6.3,6.3-6.3s6.3,2.8,6.3,6.3
	C46.3,37.9,43.4,40.8,39.9,40.8z M86.2,80.7L86.2,80.7L86.2,80.7l-10.9,0V63.6c0-4.1-0.1-9.3-5.7-9.3c-5.7,0-6.5,4.4-6.5,9v17.4
	H52.2V45.6h10.5v4.8h0.1c1.5-2.8,5-5.7,10.3-5.7c11,0,13.1,7.3,13.1,16.7V80.7z"/>
</svg>
