<svg xmlns="http://www.w3.org/2000/svg" width="36.165" height="28.521" viewBox="0 0 36.165 28.521">
  <path id="Path_11" data-name="Path 11" d="M290.537,183.4c-7.914,2.627-13.019,4.51-19.685,6.21-2.417.669-2.868.22-3.569-2.243-.9-3.157-1.769-6.323-2.741-9.457a5.969,5.969,0,0,0-1.293-2.262,3.454,3.454,0,0,1,.891-5.625c.736-.387,1.611-.5,2.367-.858.978-.459,1.868-1.113,2.856-1.531a8.719,8.719,0,0,1,2.242-.476,21.11,21.11,0,0,0,2.737-.259c5.053-1.375,10.077-2.826,15.114-4.244,2.477-.7,2.921-.457,3.645,1.988.477,1.609,3.774,12.332,3.992,15.559a1.071,1.071,0,0,1-.7,1.08Zm5.871-3.512c-.514-2.525-2.743-11.278-3.047-12.322-7.351,1.938-14.072,5.906-21.956,5.227,1.785,1.448,3.972,1.853,5.6,2.715l.155,2.249-6.343-3.789,4.052,13.119a.74.74,0,0,0,.94.484l20.1-6.834A.739.739,0,0,0,296.408,179.886Zm-25.385-7.91c.488,0,.7.01.912,0,7.2-.422,13.768-3.118,20.38-5.657.208-.08.605-.12.549-.319-.644-2.431-1.145-3.464-2.808-3q-8.436,2.374-16.845,4.843a2.184,2.184,0,0,0-1.264,1.016,23.554,23.554,0,0,0-.925,3.11Zm2.788,16.123c-.518-1.594-.937-3.032-1.456-4.435-.549-1.491-1.385-2.024-2.576-1.758-.428-2.377-.858-4.752-1.308-7.245l-3.9,1.334c1.184,4.075,2.307,8.069,3.529,12.029a1.747,1.747,0,0,0,2.22,1.084l.087-.033c1.149-.286,2.283-.654,3.41-.981Zm-10.217-16.752,4.688.776v-2.947" transform="translate(-261.432 -161.841)" fill="#1a2247" stroke="#1f2445" stroke-width="1"/>
</svg>
