<svg xmlns="http://www.w3.org/2000/svg" width="27.257" height="27.014" viewBox="0 0 27.257 27.014">
  <path id="Path_1608" data-name="Path 1608" d="M42.522,568.449,40.677,562l-3.28,5.852a3.667,3.667,0,0,1-3.317,1.864l-6.709-.261,4.547,4.939a3.646,3.646,0,0,1,.745,3.727l-2.311,6.3,6.094-2.814a3.622,3.622,0,0,1,3.765.447l5.274,4.156-.783-6.672a3.614,3.614,0,0,1,1.584-3.448l5.573-3.746-6.579-1.3A3.675,3.675,0,0,1,42.522,568.449Z" transform="translate(-95.657 -551.491) rotate(-7)" fill="#1f2445"/>
</svg>
